<svg xmlns="http://www.w3.org/2000/svg" viewBox="0 0 500 500" style="enable-background:new 0 0 500 500" xml:space="preserve"><path style="fill:#ebebeb" d="M238.401 445.047H45.302a5.714 5.714 0 0 1-5.708-5.708V60.66a5.715 5.715 0 0 1 5.708-5.708h193.099a5.715 5.715 0 0 1 5.707 5.708v378.679a5.714 5.714 0 0 1-5.707 5.708zM45.302 55.203a5.464 5.464 0 0 0-5.458 5.458V439.34a5.464 5.464 0 0 0 5.458 5.458h193.099a5.463 5.463 0 0 0 5.457-5.458V60.66a5.464 5.464 0 0 0-5.457-5.458H45.302zM454.698 445.047H261.599a5.714 5.714 0 0 1-5.707-5.708V60.66a5.715 5.715 0 0 1 5.707-5.708h193.099a5.714 5.714 0 0 1 5.708 5.708v378.679a5.714 5.714 0 0 1-5.708 5.708zM261.599 55.203a5.463 5.463 0 0 0-5.457 5.458V439.34a5.463 5.463 0 0 0 5.457 5.458h193.099a5.464 5.464 0 0 0 5.458-5.458V60.66a5.464 5.464 0 0 0-5.458-5.458H261.599z"/><path style="fill:#ebebeb" d="m113.054 168.247 1.617 3.276 3.615.526-2.616 2.55.618 3.601-3.234-1.7-3.234 1.7.618-3.601-2.617-2.55 3.616-.526z"/><path style="fill:#f5f5f5" d="m436.705 322.483 1.617 3.276 3.615.526-2.616 2.55.618 3.601-3.234-1.7-3.234 1.7.617-3.601-2.616-2.55 3.616-.526zM372.599 417.566l1.617 3.276 3.616.525-2.617 2.551.618 3.601-3.234-1.7-3.234 1.7.618-3.601-2.617-2.551 3.616-.525z"/><path style="fill:#ebebeb" d="m225.945 110.154.6 1.216 1.342.195c.335.049.469.46.226.697l-.971.947.229 1.337a.408.408 0 0 1-.592.431l-1.201-.631-1.201.631a.408.408 0 0 1-.592-.431l.229-1.337-.971-.947a.409.409 0 0 1 .226-.697l1.342-.195.6-1.216a.41.41 0 0 1 .734 0z"/><path style="fill:#f5f5f5" d="m60.777 402.008.6 1.216 1.342.195c.335.049.469.46.226.697l-.971.947.229 1.337a.408.408 0 0 1-.592.431l-1.201-.631-1.201.631a.408.408 0 0 1-.592-.431l.229-1.337-.971-.947a.409.409 0 0 1 .226-.697l1.342-.195.6-1.216a.41.41 0 0 1 .734 0z"/><path style="fill:#ebebeb" d="m87.755 97.301.6 1.216 1.342.195c.335.049.469.46.226.697l-.971.947.229 1.337a.408.408 0 0 1-.593.43l-1.201-.631-1.2.631a.408.408 0 0 1-.593-.43l.229-1.337-.971-.947a.409.409 0 0 1 .226-.697l1.342-.195.6-1.216a.41.41 0 0 1 .735 0zM86.131 338.319a1.327 1.327 0 1 1-2.654 0 1.327 1.327 0 0 1 2.654 0zM275.671 171.894a1.327 1.327 0 1 1-2.654 0 1.327 1.327 0 0 1 2.654 0z"/><path style="fill:#f5f5f5" d="M206.707 98.4a1.327 1.327 0 1 1-2.654 0 1.327 1.327 0 0 1 2.654 0z"/><circle transform="rotate(-13.286 207.086 415.294)" style="fill:#f0f0f0" cx="207.142" cy="415.377" r="7.348"/><path style="fill:#e6e6e6" d="M204.597 411.09c-1.56 0-3.01.5-4.19 1.36a7.34 7.34 0 0 0 6.74 10.27c1.37 0 2.66-.38 3.76-1.039-.01-.01-.01-.01 0-.01.55-1.02.86-2.18.86-3.42 0-3.951-3.21-7.161-7.17-7.161z"/><path style="fill:#407bff" d="M147.68 287.645H86.825V260.17l60.855-72.337h29.115v73.895h15.09v25.917h-15.09v22.472H147.68v-22.472zm0-25.917V223.89l-32.156 37.838h32.156zM202.302 249.508c0-22.854 4.113-38.846 12.343-47.978 8.229-9.131 20.762-13.697 37.604-13.697 8.091 0 14.735.999 19.929 2.994 5.194 1.996 9.432 4.593 12.712 7.791 3.28 3.199 5.864 6.561 7.75 10.088 1.887 3.526 3.404 7.641 4.552 12.344 2.241 8.967 3.362 18.317 3.362 28.049 0 21.815-3.691 37.782-11.072 47.896-7.382 10.116-20.094 15.172-38.137 15.172-10.116 0-18.29-1.614-24.522-4.839-6.234-3.225-11.347-7.955-15.337-14.188-2.9-4.428-5.155-10.484-6.766-18.166-1.613-7.682-2.418-16.17-2.418-25.466zm33.134.082c0 15.31 1.353 25.767 4.059 31.372 2.707 5.604 6.63 8.406 11.769 8.406 3.39 0 6.329-1.189 8.817-3.568 2.488-2.378 4.319-6.136 5.496-11.276 1.175-5.139 1.763-13.15 1.763-24.031 0-15.964-1.353-26.695-4.059-32.19-2.707-5.496-6.766-8.243-12.18-8.243-5.523 0-9.514 2.803-11.975 8.407-2.46 5.604-3.69 15.979-3.69 31.123zM371.744 287.645h-60.855V260.17l60.855-72.337h29.115v73.895h15.09v25.917h-15.09v22.472h-29.115v-22.472zm0-25.917V223.89l-32.155 37.838h32.155z"/><g style="opacity:.3"><path style="fill:#407bff" d="M200.952 145.618a1.865 1.865 0 1 1-3.73 0 1.865 1.865 0 0 1 3.73 0z"/><circle style="fill:#407bff" cx="72.966" cy="216.129" r="1.323"/><circle style="fill:#407bff" cx="291.054" cy="408.333" r="1.893"/><circle style="fill:#407bff" cx="336.498" cy="332" r="1.323"/><path style="fill:#407bff" d="M424.173 95.619a1.323 1.323 0 1 1-2.645 0 1.323 1.323 0 0 1 2.645 0zM172.754 68.963a1.323 1.323 0 1 1-2.645 0 1.323 1.323 0 0 1 2.645 0z"/><circle style="fill:#407bff" cx="277.695" cy="136.943" r="1.323"/></g><circle style="fill:#407bff" cx="141.233" cy="116.361" r="21.91"/><circle style="opacity:.7;fill:#fff" cx="141.233" cy="116.361" r="21.91"/><path style="opacity:.2;fill:#407bff" d="M133.682 99.83c-3.071 0-5.986.635-8.641 1.77a21.844 21.844 0 0 0-5.716 14.762c0 12.097 9.807 21.904 21.904 21.904 3.081 0 6.017-.635 8.683-1.78v-.01a21.861 21.861 0 0 0 5.684-14.731c.001-12.108-9.806-21.915-21.914-21.915z"/><path style="opacity:.2;fill:#407bff" d="M131.504 105.623a2.003 2.003 0 1 1-4.007 0 2.003 2.003 0 0 1 4.007 0zM155.064 103.62a2.003 2.003 0 1 1-4.007 0 2.003 2.003 0 0 1 4.007 0zM151.058 117.901a3.278 3.278 0 1 1-6.556 0 3.278 3.278 0 0 1 6.556 0zM140.642 127.246a4.381 4.381 0 1 1-8.762 0 4.381 4.381 0 0 1 8.762 0z"/><g transform="rotate(-76.714 382.235 376.266)"><circle style="fill:#407bff" cx="382.197" cy="376.249" r="19.226"/><circle style="opacity:.3;fill:#fff" cx="382.197" cy="376.249" r="19.226"/></g><path style="opacity:.4;fill:#407bff" d="M394.333 361.339a19.05 19.05 0 0 0-5.538-.812c-10.619 0-19.229 8.61-19.229 19.228 0 6.018 2.759 11.379 7.09 14.908 1.749.531 3.612.812 5.539.812 10.619 0 19.228-8.61 19.228-19.228a19.155 19.155 0 0 0-7.09-14.908z"/><path style="fill:#407bff" d="M363.83 381.948c-20.534 9.662-5.216 17.109 23.712 6.713 26.784-9.626 36.967-21.769 13.052-18.006 1.234 5.108-32.312 18.179-36.764 11.293z"/><path style="opacity:.2" d="M394.097 187.83c-26.89 18.17-61.7 42.13-71.31 99.81h-2.05c9.35-56.98 42.89-81.57 69.79-99.81h3.57z"/><path style="fill:#407bff" d="M255.019 368.267c-16.97.001-33.809-7.662-41.986-20.186-5.053-7.739-10.92-23.95 6.555-45.578l1.556 1.258c-12.362 15.299-14.648 30.65-6.436 43.227 9.994 15.309 33.596 23.006 53.73 17.528 20.628-5.613 33.152-23.557 34.361-49.228 4.135-87.807 50.784-114.855 84.846-134.605 21.162-12.27 36.452-21.136 33.091-39.838-.466-2.595-1.501-4.388-3.163-5.481-4.353-2.868-12.853-.886-22.694 1.408-19.306 4.497-45.746 10.657-61.497-16.134l1.724-1.014c15.006 25.523 39.577 19.8 59.319 15.199 10.29-2.396 19.177-4.467 24.248-1.131 2.145 1.412 3.464 3.636 4.032 6.799 3.609 20.082-13.013 29.72-34.057 41.922-33.664 19.519-79.768 46.251-83.852 132.968-1.252 26.596-14.313 45.208-35.834 51.064-4.535 1.234-9.246 1.821-13.943 1.822z"/><path style="opacity:.2;fill:#fff" d="M255.019 368.267c-16.97.001-33.809-7.662-41.986-20.186-5.053-7.739-10.92-23.95 6.555-45.578l1.556 1.258c-12.362 15.299-14.648 30.65-6.436 43.227 9.994 15.309 33.596 23.006 53.73 17.528 20.628-5.613 33.152-23.557 34.361-49.228 4.135-87.807 50.784-114.855 84.846-134.605 21.162-12.27 36.452-21.136 33.091-39.838-.466-2.595-1.501-4.388-3.163-5.481-4.353-2.868-12.853-.886-22.694 1.408-19.306 4.497-45.746 10.657-61.497-16.134l1.724-1.014c15.006 25.523 39.577 19.8 59.319 15.199 10.29-2.396 19.177-4.467 24.248-1.131 2.145 1.412 3.464 3.636 4.032 6.799 3.609 20.082-13.013 29.72-34.057 41.922-33.664 19.519-79.768 46.251-83.852 132.968-1.252 26.596-14.313 45.208-35.834 51.064-4.535 1.234-9.246 1.821-13.943 1.822z"/><path style="fill:#407bff" d="M312.758 96.949c6.855-.125 13.582 2.134 13.582 2.134s10.965 18.771 12.302 23.067c-.461 4.24-7.615 11.191-7.615 11.191l-18.269-36.392z"/><path style="opacity:.3;fill:#fff" d="M312.758 96.949c6.855-.125 13.582 2.134 13.582 2.134s10.965 18.771 12.302 23.067c-.461 4.24-7.615 11.191-7.615 11.191l-18.269-36.392z"/><path style="fill:#407bff" d="M345.339 188.133c-4.136-5.248-8.197-10.594-11.559-16.385a84.965 84.965 0 0 1-2.389-4.415 93.32 93.32 0 0 1-1.244-2.567c-.351-.753-1.126-1.862-1.204-2.684-1.201-12.672 3.137-22-1.028-32.172l-16.471 6.437s1.401 18.122 4.598 28.963c1.984 6.726 6.475 12.549 10.803 17.937 1.354 1.686 2.659 3.41 4.01 5.098 1.279 1.598 2.712 3.064 3.994 4.654 1.947 2.413 2.595 4.716 1.115 7.561-.079.152-.162.303-.247.453-.42.741 1.546 1.581 2.781.021 2.042-2.581 1.721-2.422 3.462-4.623 1.057-1.336 2.271-2.779 3.319-4.033a3.364 3.364 0 0 0 .06-4.245z"/><path style="opacity:.7;fill:#fff" d="M345.339 188.133c-4.136-5.248-8.197-10.594-11.559-16.385a84.965 84.965 0 0 1-2.389-4.415 93.32 93.32 0 0 1-1.244-2.567c-.351-.753-1.126-1.862-1.204-2.684-1.201-12.672 3.137-22-1.028-32.172l-16.471 6.437s1.401 18.122 4.598 28.963c1.984 6.726 6.475 12.549 10.803 17.937 1.354 1.686 2.659 3.41 4.01 5.098 1.279 1.598 2.712 3.064 3.994 4.654 1.947 2.413 2.595 4.716 1.115 7.561-.079.152-.162.303-.247.453-.42.741 1.546 1.581 2.781.021 2.042-2.581 1.721-2.422 3.462-4.623 1.057-1.336 2.271-2.779 3.319-4.033a3.364 3.364 0 0 0 .06-4.245z"/><path style="opacity:.3;fill:#407bff" d="M341.312 182.918c-2.205 2.665-6.688 6.122-8.664 7.523.43.479.856.968 1.283 1.457 4.068-2.657 7.284-6.104 8.504-7.504-.377-.485-.75-.981-1.123-1.476zM345.335 188.135c-.038-.052-.078-.094-.116-.145-.694.723-1.183 1.876-1.265 3.17-.066.894.084 1.712.377 2.351.333-.386.644-.768.949-1.131a3.359 3.359 0 0 0 .055-4.245z"/><path style="fill:#407bff" d="M308.842 108.951c-1.723 2.506-3.754 4.976-6.375 7.194a23.77 23.77 0 0 1-4.417 2.98 19.04 19.04 0 0 1-2.583 1.085l-.675.217-.218.068a6.47 6.47 0 0 1-1.35.265c-1.083.082-1.868-.072-2.515-.233-1.277-.348-2.13-.813-2.937-1.264a23.228 23.228 0 0 1-2.154-1.414 39.543 39.543 0 0 1-3.578-3.048 53.326 53.326 0 0 1-5.99-6.735 2.51 2.51 0 0 1 3.352-3.625l.076.049c2.36 1.498 4.741 3.078 7.064 4.492 1.173.692 2.319 1.388 3.446 1.93.554.28 1.097.535 1.587.716.477.186.953.292 1.077.267.052-.003-.01-.074-.378-.061a2.235 2.235 0 0 0-.561.101c-.069.023.029-.019.035-.025l.331-.169c.44-.224.862-.504 1.29-.789.856-.579 1.671-1.314 2.503-2.12 1.646-1.635 3.23-3.67 4.902-5.786l.022-.029a5.003 5.003 0 0 1 7.026-.825c2.076 1.639 2.493 4.608 1.02 6.759z"/><path style="opacity:.7;fill:#fff" d="M308.842 108.951c-1.723 2.506-3.754 4.976-6.375 7.194a23.77 23.77 0 0 1-4.417 2.98 19.04 19.04 0 0 1-2.583 1.085l-.675.217-.218.068a6.47 6.47 0 0 1-1.35.265c-1.083.082-1.868-.072-2.515-.233-1.277-.348-2.13-.813-2.937-1.264a23.228 23.228 0 0 1-2.154-1.414 39.543 39.543 0 0 1-3.578-3.048 53.326 53.326 0 0 1-5.99-6.735 2.51 2.51 0 0 1 3.352-3.625l.076.049c2.36 1.498 4.741 3.078 7.064 4.492 1.173.692 2.319 1.388 3.446 1.93.554.28 1.097.535 1.587.716.477.186.953.292 1.077.267.052-.003-.01-.074-.378-.061a2.235 2.235 0 0 0-.561.101c-.069.023.029-.019.035-.025l.331-.169c.44-.224.862-.504 1.29-.789.856-.579 1.671-1.314 2.503-2.12 1.646-1.635 3.23-3.67 4.902-5.786l.022-.029a5.003 5.003 0 0 1 7.026-.825c2.076 1.639 2.493 4.608 1.02 6.759z"/><path style="fill:#407bff" d="m272.285 102.416 1.172 1.966s.895 2.616 2.686 3.1l4.854-1.572-.243-.408.007.001c-.622-.947-.555-2.773-.336-4.292.218-1.519-.57-1.573-1.152-1.195-.336.218-.574.911-.847 1.658a7.678 7.678 0 0 0-.784-.934l-1.483-1.477a1.708 1.708 0 0 0-2.34-.066l-1.202 1.068a1.709 1.709 0 0 0-.332 2.151z"/><path style="opacity:.7;fill:#fff" d="m272.285 102.416 1.172 1.966s.895 2.616 2.686 3.1l4.854-1.572-.243-.408.007.001c-.622-.947-.555-2.773-.336-4.292.218-1.519-.57-1.573-1.152-1.195-.336.218-.574.911-.847 1.658a7.678 7.678 0 0 0-.784-.934l-1.483-1.477a1.708 1.708 0 0 0-2.34-.066l-1.202 1.068a1.709 1.709 0 0 0-.332 2.151z"/><path style="fill:#407bff" d="M317.674 95.224c-4.649 1.128-11.036 3.781-15.349 6.468a4.31 4.31 0 0 0-1.932 4.525c1.924 9.44 6.314 22.085 11.053 30.129l22.111-9.147c.152-3.9-5.216-16.52-10.684-28.717-.982-2.194-2.863-3.824-5.199-3.258z"/><path style="opacity:.8;fill:#fff" d="M317.674 95.224c-4.649 1.128-11.036 3.781-15.349 6.468a4.31 4.31 0 0 0-1.932 4.525c1.924 9.44 6.314 22.085 11.053 30.129l22.111-9.147c.152-3.9-5.216-16.52-10.684-28.717-.982-2.194-2.863-3.824-5.199-3.258z"/><path style="opacity:.3;fill:#407bff" d="m326.296 106.214-4.388-1.471c.982 2.567 4.533 5.821 7.03 7.732a419.01 419.01 0 0 0-2.642-6.261z"/><path style="fill:#407bff" d="M316.217 85.32c-1.825-3.481-5.774-5.233-10.516-4.837-3.998.334-7.544 4.416-7.123 6.622.42 2.206 3.785 3.14 4.394 3.906l-2.773 2.01a3.002 3.002 0 0 0-.596 4.287c1.167 1.482 2.703 3.03 3.598 4.123 7.664-.199 13.332-3.123 15.374-5.936-.734-3.579-.543-6.713-2.358-10.175z"/><path style="opacity:.8;fill:#fff" d="M316.217 85.32c-1.825-3.481-5.774-5.233-10.516-4.837-3.998.334-7.544 4.416-7.123 6.622.42 2.206 3.785 3.14 4.394 3.906l-2.773 2.01a3.002 3.002 0 0 0-.596 4.287c1.167 1.482 2.703 3.03 3.598 4.123 7.664-.199 13.332-3.123 15.374-5.936-.734-3.579-.543-6.713-2.358-10.175z"/><path style="fill:#263238" d="M312.461 87.476a7.573 7.573 0 1 1-14.107 5.513 7.573 7.573 0 1 1 14.107-5.513z"/><path style="fill:#407bff" d="M377.388 177.596c-.111-3.289-.253-2.96-.349-5.764-.058-1.703-.065-3.589-.076-5.223a3.367 3.367 0 0 0-2.701-3.277c-1.325-.269-2.654-.525-3.977-.807-1.726-.368-3.432-.764-5.127-1.256a65.327 65.327 0 0 1-3.905-1.267 74.054 74.054 0 0 1-4.089-1.62 120.954 120.954 0 0 1-4.678-2.138 253.253 253.253 0 0 1-5.143-2.551c-6.581-10.895-6.723-18.074-13.786-26.495l-15.16 6.858s11.139 19.765 18.725 28.145c4.367 4.823 11.218 6.997 17.328 8.575 4.408 1.138 8.878 2.009 13.353 2.831 1.74.319 3.631.443 5.128 1.482 1.179.818 1.789 2.095 2.137 3.452.071.277.131.557.185.839.16.837 2.203.205 2.135-1.784z"/><path style="opacity:.8;fill:#fff" d="M377.388 177.596c-.111-3.289-.253-2.96-.349-5.764-.058-1.703-.065-3.589-.076-5.223a3.367 3.367 0 0 0-2.701-3.277c-1.325-.269-2.654-.525-3.977-.807-1.726-.368-3.432-.764-5.127-1.256a65.327 65.327 0 0 1-3.905-1.267 74.054 74.054 0 0 1-4.089-1.62 120.954 120.954 0 0 1-4.678-2.138 253.253 253.253 0 0 1-5.143-2.551c-6.581-10.895-6.723-18.074-13.786-26.495l-15.16 6.858s11.139 19.765 18.725 28.145c4.367 4.823 11.218 6.997 17.328 8.575 4.408 1.138 8.878 2.009 13.353 2.831 1.74.319 3.631.443 5.128 1.482 1.179.818 1.789 2.095 2.137 3.452.071.277.131.557.185.839.16.837 2.203.205 2.135-1.784z"/><path style="opacity:.3;fill:#407bff" d="M369.7 162.4c-.597-.131-1.203-.265-1.806-.408.047 3.453-1.572 9.417-2.167 11.224l1.902.361c1.755-4.745 2.031-9.768 2.071-11.177zM376.961 166.61a3.367 3.367 0 0 0-2.694-3.281c-.314-.064-.638-.132-.954-.186.066.94.65 2.031 1.628 2.897.641.578 1.366.962 2.032 1.143-.01-.199-.011-.386-.012-.573z"/><path style="fill:#fff" d="M311.046 87.54c.405 1.516-1.292 3.11-2.65 1.799-1.102-1.064-2.762-2.846-4.117-3.693-1.392-.871.464-2.387 2.65-1.799 2.041.55 3.712 2.176 4.117 3.693z"/><path style="fill:#407bff" d="M311.161 135.86c-.705.26.583 1.456.583 1.456s13.97-4.787 22.495-9.716c.072-1.031-.678-1.578-.678-1.578s-10.372 5.404-22.4 9.838z"/><path style="opacity:.5;fill:#fff" d="M311.161 135.86c-.705.26.583 1.456.583 1.456s13.97-4.787 22.495-9.716c.072-1.031-.678-1.578-.678-1.578s-10.372 5.404-22.4 9.838z"/><path style="fill:#407bff" d="M321.46 94.563a95.883 95.883 0 0 1 7.947 4.501 81.324 81.324 0 0 1 3.842 2.549 54.018 54.018 0 0 1 3.798 2.862l.474.388.591.533c.42.37.728.711 1.037 1.051.324.351.591.689.854 1.026.273.339.532.676.765 1.008.989 1.328 1.795 2.679 2.586 4.019 1.537 2.717 2.868 5.43 3.966 8.349a2.52 2.52 0 0 1-4.189 2.619l-.049-.054c-2.009-2.128-3.936-4.373-5.875-6.458-1.897-2.079-3.912-4.213-5.537-5.141-2.27-1.416-4.798-2.822-7.31-4.207l-7.563-4.198-.019-.01a5 5 0 0 1-1.946-6.799 5.012 5.012 0 0 1 6.628-2.038z"/><path style="opacity:.8;fill:#fff" d="M321.46 94.563a95.883 95.883 0 0 1 7.947 4.501 81.324 81.324 0 0 1 3.842 2.549 54.018 54.018 0 0 1 3.798 2.862l.474.388.591.533c.42.37.728.711 1.037 1.051.324.351.591.689.854 1.026.273.339.532.676.765 1.008.989 1.328 1.795 2.679 2.586 4.019 1.537 2.717 2.868 5.43 3.966 8.349a2.52 2.52 0 0 1-4.189 2.619l-.049-.054c-2.009-2.128-3.936-4.373-5.875-6.458-1.897-2.079-3.912-4.213-5.537-5.141-2.27-1.416-4.798-2.822-7.31-4.207l-7.563-4.198-.019-.01a5 5 0 0 1-1.946-6.799 5.012 5.012 0 0 1 6.628-2.038z"/><path style="fill:#407bff" d="m349.733 125.738-.849-2.125s-.474-2.724-2.167-3.483l-5.04.792.176.441-.007-.002c.466 1.032.113 2.826-.341 4.291-.454 1.466.316 1.643.95 1.361.366-.163.71-.81 1.096-1.505.185.363.388.716.628 1.045l1.233 1.691c.532.729 1.54.919 2.301.432l1.354-.867c.691-.441.971-1.31.666-2.071z"/><path style="opacity:.8;fill:#fff" d="m349.733 125.738-.849-2.125s-.474-2.724-2.167-3.483l-5.04.792.176.441-.007-.002c.466 1.032.113 2.826-.341 4.291-.454 1.466.316 1.643.95 1.361.366-.163.71-.81 1.096-1.505.185.363.388.716.628 1.045l1.233 1.691c.532.729 1.54.919 2.301.432l1.354-.867c.691-.441.971-1.31.666-2.071z"/><path style="opacity:.3;fill:#407bff" d="m317.236 106.057-1.219.099-7.485 18.084c.44.03.844-.007 1.218-.099 0 0 9.76-3.637 12.714-4.97-1.988-4.12-5.228-13.114-5.228-13.114z"/><path style="fill:#fff" d="M303.568 110.802c.417 3.257 2.859 10.179 4.965 13.438 3.655-1.26 9.76-3.637 12.714-4.97-1.989-4.119-4.083-9.795-5.229-13.113-3.149.209-10.012 2.794-12.45 4.645z"/><path style="opacity:.3;fill:#407bff" d="M311 114.713a2.578 2.578 0 1 1-4.941-1.479 2.578 2.578 0 1 1 4.941 1.479z"/><path style="opacity:.6;fill:#407bff" d="M312.913 111.268a.845.845 0 1 1-1.62-.485.845.845 0 0 1 1.62.485zM315.145 110.399a.845.845 0 1 1-1.62-.485.845.845 0 0 1 1.62.485z"/><path style="opacity:.5;fill:#407bff" d="m318.291 118.187-9.247 3.654-.559-1.818 9.247-3.655z"/><path style="opacity:.2" d="M267.257 257.17c-.2 7.54-.76 13.33-1.68 17.35-1.18 5.14-3.01 8.9-5.5 11.28-2.48 2.38-5.42 3.57-8.81 3.57-5.14 0-9.07-2.8-11.77-8.41-.44-.91-.84-1.95-1.21-3.11a144.308 144.308 0 0 0-15.92 16.03l-5.31 6.26c2.87 2.91 6.13 5.3 9.77 7.19 6.23 3.22 14.4 4.84 24.52 4.84 1.78 0 3.5-.05 5.17-.15a143.39 143.39 0 0 0 15.1-29.02l14.85-38.72-19.21 12.89z"/><path style="fill:#263238" d="m133.388 309.958 17.502 17.502 49.011-46.167c-16.866-6.412-49.742 11.895-66.513 28.665zM194.422 370.992 176.92 353.49l46.167-49.01c6.412 16.865-11.894 49.741-28.665 66.512z"/><path style="fill:#407bff" d="m261.399 260.699 19.091-36.809-36.809 19.091a144.2 144.2 0 0 0-32.444 23.008l-62.747 59.07 30.83 30.83 59.07-62.747a144.143 144.143 0 0 0 23.009-32.443z"/><path style="opacity:.6;fill:#fff" d="m261.399 260.699 19.091-36.809-36.809 19.091a144.2 144.2 0 0 0-32.444 23.008l-62.747 59.07 30.83 30.83 59.07-62.747a144.143 144.143 0 0 0 23.009-32.443z"/><circle style="fill:#fff" cx="222.198" cy="282.183" r="12.899"/><circle style="fill:#407bff" cx="222.197" cy="282.183" r="8.285"/><path style="opacity:.3;fill:#407bff" d="m189.746 344.816-30.182-30.181 24.711-23.264 28.734 28.734z"/><path style="fill:#407bff" d="M140.22 337.616c-22.605 1.839-30.093 16.306-32.647 35.539-1.302 9.809-1.88 19.733-10.117 25.475-2.286 1.594-1.151 5.147 1.635 5.06 30.339-.947 44.49-15.804 46.267-22.025-.612 3.933-1.504 7.035-2.492 9.475-1.016 2.507 1.737 4.827 4.029 3.391 8.517-5.336 19.199-15.155 19.909-31.078-6.297-8.85-26.584-25.837-26.584-25.837z"/><path style="opacity:.2;fill:#fff" d="M140.22 337.616c-22.605 1.839-30.093 16.306-32.647 35.539-1.302 9.809-1.88 19.733-10.117 25.475-2.286 1.594-1.151 5.147 1.635 5.06 30.339-.947 44.49-15.804 46.267-22.025-.612 3.933-1.504 7.035-2.492 9.475-1.016 2.507 1.737 4.827 4.029 3.391 8.517-5.336 19.199-15.155 19.909-31.078-6.297-8.85-26.584-25.837-26.584-25.837z"/><path style="fill:#407bff" d="m170.276 370.3-36.196-36.196 19.283-4.171 21.085 21.084z"/></svg>